<?xml version="1.0" standalone="no"?>
<!DOCTYPE svg PUBLIC "-//W3C//DTD SVG 20010904//EN"
 "http://www.w3.org/TR/2001/REC-SVG-20010904/DTD/svg10.dtd">
<svg version="1.0" xmlns="http://www.w3.org/2000/svg"
 width="512.000000pt" height="512.000000pt" viewBox="0 0 512.000000 512.000000"
 preserveAspectRatio="xMidYMid meet">

<g transform="translate(0.000000,512.000000) scale(0.100000,-0.100000)"
fill="#000000" stroke="none">
<path d="M2425 5106 c-270 -63 -451 -237 -532 -513 -16 -53 -18 -154 -21
-1190 l-3 -1132 -42 -33 c-76 -59 -174 -152 -220 -208 -347 -429 -380 -1009
-84 -1462 316 -486 914 -687 1459 -493 503 180 848 696 814 1221 -25 390 -189
698 -503 942 l-42 33 -3 1132 c-4 1234 -1 1159 -60 1300 -75 179 -233 322
-423 383 -99 32 -250 41 -340 20z m229 -301 c113 -30 204 -106 254 -213 l27
-57 3 -1212 2 -1213 102 -66 c260 -169 412 -401 448 -685 15 -122 13 -189 -11
-302 -57 -284 -242 -527 -498 -657 -217 -109 -491 -128 -723 -49 -411 141
-677 554 -630 981 33 304 181 537 450 712 l102 66 2 1213 3 1212 27 57 c49
105 140 183 250 212 70 19 121 19 192 1z"/>
<path d="M2320 4210 l0 -150 240 0 240 0 0 150 0 150 -240 0 -240 0 0 -150z"/>
<path d="M2320 3660 l0 -150 240 0 240 0 0 150 0 150 -240 0 -240 0 0 -150z"/>
<path d="M2320 3100 l0 -150 240 0 240 0 0 150 0 150 -240 0 -240 0 0 -150z"/>
<path d="M2410 2287 l0 -383 -56 -18 c-185 -58 -349 -213 -424 -398 -147 -369
53 -780 440 -900 107 -33 273 -33 380 0 387 120 587 531 440 900 -75 185 -239
340 -424 398 l-56 18 0 383 0 383 -150 0 -150 0 0 -383z m280 -692 c108 -37
206 -148 236 -265 39 -153 -22 -311 -156 -402 -172 -118 -403 -72 -522 102
-118 172 -72 403 102 522 98 67 226 83 340 43z"/>
</g>
</svg>
